Urbanist-BlackItalic.ufo
<glyph name="exclam" format="2">
  <advance width="498"/>
  <unicode hex="0021"/>
  <outline>
    <contour>
      <point x="93" y="420" type="line"/>
      <point x="343" y="420" type="line"/>
      <point x="480" y="1400" type="line"/>
      <point x="230" y="1400" type="line"/>
    </contour>
    <contour>
      <point x="173" y="-26" type="curve" smooth="yes"/>
      <point x="246" y="-26"/>
      <point x="312" y="32"/>
      <point x="323" y="109" type="curve" smooth="yes"/>
      <point x="336" y="200"/>
      <point x="272" y="274"/>
      <point x="181" y="274" type="curve" smooth="yes"/>
      <point x="106" y="274"/>
      <point x="40" y="216"/>
      <point x="30" y="143" type="curve" smooth="yes"/>
      <point x="17" y="48"/>
      <point x="80" y="-26"/>
    </contour>
  </outline>
</glyph>
<glyph name="dollar" format="2">
  <advance width="1224"/>
  <unicode hex="0024"/>
  <outline>
    <contour>
      <point x="716" y="1124" type="curve"/>
      <point x="838" y="1124"/>
      <point x="925" y="1074"/>
      <point x="937" y="1016" type="curve"/>
      <point x="1227" y="1102" type="line"/>
      <point x="1190" y="1272"/>
      <point x="1025" y="1391"/>
      <point x="833" y="1419" type="curve"/>
      <point x="870" y="1624" type="line"/>
      <point x="670" y="1624" type="line"/>
      <point x="633" y="1421" type="line"/>
      <point x="388" y="1385"/>
      <point x="182" y="1228"/>
      <point x="151" y="1005" type="curve"/>
      <point x="111" y="722"/>
      <point x="330" y="595"/>
      <point x="636" y="553" type="curve"/>
      <point x="737" y="535"/>
      <point x="845" y="504"/>
      <point x="834" y="429" type="curve"/>
      <point x="821" y="338"/>
      <point x="692" y="274"/>
      <point x="563" y="274" type="curve"/>
      <point x="442" y="274"/>
      <point x="355" y="326"/>
      <point x="343" y="384" type="curve"/>
      <point x="53" y="296" type="line"/>
      <point x="93" y="128"/>
      <point x="254" y="11"/>
      <point x="448" y="-17" type="curve"/>
      <point x="410" y="-224" type="line"/>
      <point x="610" y="-224" type="line"/>
      <point x="647" y="-19" type="line"/>
      <point x="892" y="17"/>
      <point x="1098" y="174"/>
      <point x="1129" y="395" type="curve"/>
      <point x="1167" y="662"/>
      <point x="935" y="807"/>
      <point x="644" y="847" type="curve"/>
      <point x="529" y="867"/>
      <point x="432" y="872"/>
      <point x="446" y="971" type="curve"/>
      <point x="458" y="1058"/>
      <point x="592" y="1126"/>
    </contour>
  </outline>
</glyph>
<glyph name="parenleft" format="2">
  <advance width="820"/>
  <unicode hex="0028"/>
  <outline>
    <contour>
      <point x="341" y="-106" type="curve"/>
      <point x="628" y="-118" type="line"/>
      <point x="517" y="34"/>
      <point x="395" y="324"/>
      <point x="438" y="627" type="curve" smooth="yes"/>
      <point x="473" y="874"/>
      <point x="723" y="1334"/>
      <point x="853" y="1396" type="curve"/>
      <point x="539" y="1403" type="line"/>
      <point x="367" y="1343"/>
      <point x="173" y="880"/>
      <point x="143" y="661" type="curve" smooth="yes"/>
      <point x="97" y="334"/>
      <point x="160" y="104"/>
    </contour>
  </outline>
</glyph>
<glyph name="six" format="2">
  <advance width="1110"/>
  <unicode hex="0036"/>
  <outline>
    <contour>
      <point x="491" y="-26" type="curve" smooth="yes"/>
      <point x="760" y="-26"/>
      <point x="1007" y="192"/>
      <point x="1044" y="457" type="curve" smooth="yes"/>
      <point x="1081" y="722"/>
      <point x="914" y="941"/>
      <point x="664" y="971" type="curve"/>
      <point x="984" y="1400" type="line"/>
      <point x="629" y="1400" type="line"/>
      <point x="141" y="731" type="line" smooth="yes"/>
      <point x="88" y="653"/>
      <point x="60" y="568"/>
      <point x="49" y="491" type="curve" smooth="yes"/>
      <point x="9" y="206"/>
      <point x="210" y="-26"/>
    </contour>
    <contour>
      <point x="499" y="274" type="curve" smooth="yes"/>
      <point x="406" y="274"/>
      <point x="329" y="350"/>
      <point x="344" y="455" type="curve" smooth="yes"/>
      <point x="360" y="568"/>
      <point x="463" y="674"/>
      <point x="591" y="674" type="curve" smooth="yes"/>
      <point x="697" y="674"/>
      <point x="763" y="590"/>
      <point x="748" y="489" type="curve" smooth="yes"/>
      <point x="733" y="380"/>
      <point x="624" y="274"/>
    </contour>
  </outline>
</glyph>
<glyph name="greater" format="2">
  <advance width="1160"/>
  <unicode hex="003E"/>
  <outline>
    <contour>
      <point x="21" y="76" type="line"/>
      <point x="1059" y="348" type="line"/>
      <point x="1129" y="850" type="line"/>
      <point x="167" y="1124" type="line"/>
      <point x="124" y="812" type="line"/>
      <point x="880" y="600" type="line"/>
      <point x="64" y="388" type="line"/>
    </contour>
  </outline>
</glyph>
<glyph name="at" format="2">
  <advance width="1890"/>
  <unicode hex="0040"/>
  <outline>
    <contour>
      <point x="843" y="-286" type="curve"/>
      <point x="868" y="14" type="line"/>
      <point x="554" y="14"/>
      <point x="342" y="229"/>
      <point x="385" y="533" type="curve" smooth="yes"/>
      <point x="430" y="856"/>
      <point x="730" y="1116"/>
      <point x="1048" y="1116" type="curve" smooth="yes"/>
      <point x="1348" y="1116"/>
      <point x="1562" y="873"/>
      <point x="1519" y="567" type="curve" smooth="yes"/>
      <point x="1507" y="481"/>
      <point x="1447" y="308"/>
      <point x="1362" y="308" type="curve" smooth="yes"/>
      <point x="1332" y="308"/>
      <point x="1324" y="323"/>
      <point x="1330" y="366" type="curve" smooth="yes"/>
      <point x="1402" y="877" type="line"/>
      <point x="1189" y="927" type="line"/>
      <point x="1179" y="905" type="line"/>
      <point x="1136" y="930"/>
      <point x="1044" y="948"/>
      <point x="973" y="948" type="curve" smooth="yes"/>
      <point x="763" y="948"/>
      <point x="569" y="778"/>
      <point x="539" y="567" type="curve" smooth="yes"/>
      <point x="507" y="339"/>
      <point x="667" y="152"/>
      <point x="895" y="152" type="curve" smooth="yes"/>
      <point x="958" y="152"/>
      <point x="1022" y="166"/>
      <point x="1081" y="209" type="curve"/>
      <point x="1086" y="107"/>
      <point x="1238" y="8"/>
      <point x="1374" y="8" type="curve" smooth="yes"/>
      <point x="1612" y="8"/>
      <point x="1777" y="267"/>
      <point x="1815" y="533" type="curve" smooth="yes"/>
      <point x="1883" y="1017"/>
      <point x="1546" y="1416"/>
      <point x="1057" y="1416" type="curve" smooth="yes"/>
      <point x="587" y="1416"/>
      <point x="156" y="1037"/>
      <point x="89" y="567" type="curve" smooth="yes"/>
      <point x="21" y="79"/>
      <point x="364" y="-286"/>
    </contour>
    <contour>
      <point x="918" y="371" type="curve" smooth="yes"/>
      <point x="828" y="371"/>
      <point x="766" y="444"/>
      <point x="779" y="533" type="curve" smooth="yes"/>
      <point x="794" y="642"/>
      <point x="896" y="729"/>
      <point x="1002" y="729" type="curve" smooth="yes"/>
      <point x="1092" y="729"/>
      <point x="1154" y="658"/>
      <point x="1141" y="567" type="curve" smooth="yes"/>
      <point x="1126" y="460"/>
      <point x="1024" y="371"/>
    </contour>
  </outline>
</glyph>
<glyph name="B" format="2">
  <advance width="1206"/>
  <unicode hex="0042"/>
  <outline>
    <contour>
      <point x="50" y="0" type="line"/>
      <point x="642" y="0" type="line" smooth="yes"/>
      <point x="874" y="0"/>
      <point x="1078" y="162"/>
      <point x="1107" y="365" type="curve" smooth="yes"/>
      <point x="1126" y="498"/>
      <point x="1131" y="719"/>
      <point x="966" y="760" type="curve"/>
      <point x="1085" y="810"/>
      <point x="1119" y="918"/>
      <point x="1130" y="997" type="curve" smooth="yes"/>
      <point x="1164" y="1240"/>
      <point x="998" y="1400"/>
      <point x="768" y="1400" type="curve" smooth="yes"/>
      <point x="246" y="1400" type="line"/>
    </contour>
    <contour>
      <point x="385" y="254" type="line"/>
      <point x="438" y="625" type="line"/>
      <point x="698" y="625" type="line" smooth="yes"/>
      <point x="802" y="625"/>
      <point x="866" y="544"/>
      <point x="854" y="461" type="curve" smooth="yes"/>
      <point x="838" y="342"/>
      <point x="733" y="254"/>
      <point x="629" y="254" type="curve" smooth="yes"/>
    </contour>
    <contour>
      <point x="473" y="875" type="line"/>
      <point x="511" y="1144" type="line"/>
      <point x="713" y="1144" type="line" smooth="yes"/>
      <point x="793" y="1144"/>
      <point x="845" y="1106"/>
      <point x="835" y="1033" type="curve" smooth="yes"/>
      <point x="822" y="942"/>
      <point x="738" y="875"/>
      <point x="658" y="875" type="curve" smooth="yes"/>
    </contour>
  </outline>
</glyph>
<glyph name="F" format="2">
  <advance width="972"/>
  <unicode hex="0046"/>
  <outline>
    <contour>
      <point x="50" y="0" type="line"/>
      <point x="350" y="0" type="line"/>
      <point x="434" y="600" type="line"/>
      <point x="870" y="600" type="line"/>
      <point x="912" y="900" type="line"/>
      <point x="476" y="900" type="line"/>
      <point x="504" y="1100" type="line"/>
      <point x="1036" y="1100" type="line"/>
      <point x="1078" y="1400" type="line"/>
      <point x="246" y="1400" type="line"/>
    </contour>
  </outline>
</glyph>
<glyph name="H" format="2">
  <advance width="1336"/>
  <unicode hex="0048"/>
  <outline>
    <contour>
      <point x="1042" y="1400" type="line"/>
      <point x="972" y="900" type="line"/>
      <point x="476" y="900" type="line"/>
      <point x="546" y="1400" type="line"/>
      <point x="246" y="1400" type="line"/>
      <point x="50" y="0" type="line"/>
      <point x="350" y="0" type="line"/>
      <point x="434" y="600" type="line"/>
      <point x="930" y="600" type="line"/>
      <point x="846" y="0" type="line"/>
      <point x="1146" y="0" type="line"/>
      <point x="1342" y="1400" type="line"/>
    </contour>
  </outline>
</glyph>
<glyph name="N" format="2">
  <advance width="1376"/>
  <unicode hex="004E"/>
  <outline>
    <contour>
      <point x="50" y="0" type="line"/>
      <point x="350" y="0" type="line"/>
      <point x="473" y="858" type="line"/>
      <point x="865" y="0" type="line"/>
      <point x="1186" y="0" type="line"/>
      <point x="1382" y="1400" type="line"/>
      <point x="1082" y="1400" type="line"/>
      <point x="959" y="542" type="line"/>
      <point x="567" y="1400" type="line"/>
      <point x="246" y="1400" type="line"/>
    </contour>
  </outline>
</glyph>
<glyph name="W" format="2">
  <advance width="1960"/>
  <unicode hex="0057"/>
  <outline>
    <contour>
      <point x="390" y="0" type="line"/>
      <point x="728" y="0" type="line"/>
      <point x="1016" y="726" type="line"/>
      <point x="1098" y="0" type="line"/>
      <point x="1436" y="0" type="line"/>
      <point x="1988" y="1400" type="line"/>
      <point x="1675" y="1400" type="line"/>
      <point x="1337" y="552" type="line"/>
      <point x="1243" y="1400" type="line"/>
      <point x="967" y="1400" type="line"/>
      <point x="629" y="552" type="line"/>
      <point x="535" y="1400" type="line"/>
      <point x="228" y="1400" type="line"/>
    </contour>
  </outline>
</glyph>
<glyph name="bracketright" format="2">
  <advance width="698"/>
  <unicode hex="005D"/>
  <outline>
    <contour>
      <point x="14" y="-112" type="line"/>
      <point x="492" y="-112" type="line"/>
      <point x="704" y="1400" type="line"/>
      <point x="226" y="1400" type="line"/>
      <point x="184" y="1100" type="line"/>
      <point x="362" y="1100" type="line"/>
      <point x="234" y="188" type="line"/>
      <point x="56" y="188" type="line"/>
    </contour>
  </outline>
</glyph>
<glyph name="asciicircum" format="2">
  <advance width="1052"/>
  <unicode hex="005E"/>
  <outline>
    <contour>
      <point x="148" y="1000" type="line"/>
      <point x="473" y="1000" type="line"/>
      <point x="650" y="1348" type="line"/>
      <point x="725" y="1000" type="line"/>
      <point x="1040" y="1000" type="line"/>
      <point x="895" y="1650" type="line"/>
      <point x="475" y="1650" type="line"/>
    </contour>
  </outline>
</glyph>
<glyph name="a" format="2">
  <advance width="1270"/>
  <unicode hex="0061"/>
  <outline>
    <contour>
      <point x="920" y="1000" type="line"/>
      <point x="901" y="902" type="line"/>
      <point x="849" y="972"/>
      <point x="770" y="1028"/>
      <point x="653" y="1028" type="curve" smooth="yes"/>
      <point x="372" y="1028"/>
      <point x="112" y="800"/>
      <point x="72" y="517" type="curve" smooth="yes"/>
      <point x="30" y="218"/>
      <point x="240" y="-26"/>
      <point x="539" y="-26" type="curve" smooth="yes"/>
      <point x="638" y="-26"/>
      <point x="726" y="18"/>
      <point x="798" y="88" type="curve"/>
      <point x="779" y="0" type="line"/>
      <point x="1080" y="0" type="line"/>
      <point x="1220" y="1000" type="line"/>
    </contour>
    <contour>
      <point x="550" y="262" type="curve" smooth="yes"/>
      <point x="436" y="262"/>
      <point x="359" y="362"/>
      <point x="376" y="483" type="curve" smooth="yes"/>
      <point x="395" y="624"/>
      <point x="520" y="738"/>
      <point x="650" y="738" type="curve" smooth="yes"/>
      <point x="766" y="738"/>
      <point x="844" y="640"/>
      <point x="826" y="517" type="curve" smooth="yes"/>
      <point x="807" y="378"/>
      <point x="682" y="262"/>
    </contour>
  </outline>
</glyph>
<glyph name="d" format="2">
  <advance width="1240"/>
  <unicode hex="0064"/>
  <outline>
    <contour>
      <point x="980" y="1500" type="line"/>
      <point x="891" y="902" type="line"/>
      <point x="839" y="972"/>
      <point x="760" y="1026"/>
      <point x="643" y="1026" type="curve"/>
      <point x="362" y="1026"/>
      <point x="102" y="798"/>
      <point x="62" y="517" type="curve"/>
      <point x="20" y="218"/>
      <point x="230" y="-26"/>
      <point x="529" y="-26" type="curve"/>
      <point x="628" y="-26"/>
      <point x="715" y="16"/>
      <point x="787" y="86" type="curve"/>
      <point x="769" y="0" type="line"/>
      <point x="1070" y="0" type="line"/>
      <point x="1281" y="1500" type="line"/>
    </contour>
    <contour>
      <point x="540" y="262" type="curve"/>
      <point x="426" y="262"/>
      <point x="348" y="360"/>
      <point x="366" y="483" type="curve"/>
      <point x="385" y="624"/>
      <point x="510" y="738"/>
      <point x="640" y="738" type="curve"/>
      <point x="756" y="738"/>
      <point x="834" y="640"/>
      <point x="816" y="517" type="curve"/>
      <point x="797" y="376"/>
      <point x="672" y="262"/>
    </contour>
  </outline>
</glyph>
<glyph name="l" format="2">
  <advance width="540"/>
  <unicode hex="006C"/>
  <outline>
    <contour>
      <point x="50" y="0" type="line"/>
      <point x="350" y="0" type="line"/>
      <point x="561" y="1500" type="line"/>
      <point x="261" y="1500" type="line"/>
    </contour>
  </outline>
</glyph>
<glyph name="m" format="2">
  <advance width="1746"/>
  <unicode hex="006D"/>
  <outline>
    <contour>
      <point x="10" y="0" type="line"/>
      <point x="310" y="0" type="line"/>
      <point x="383" y="524" type="line" smooth="yes"/>
      <point x="397" y="619"/>
      <point x="494" y="703"/>
      <point x="597" y="703" type="curve" smooth="yes"/>
      <point x="683" y="703"/>
      <point x="742" y="635"/>
      <point x="729" y="540" type="curve" smooth="yes"/>
      <point x="653" y="0" type="line"/>
      <point x="953" y="0" type="line"/>
      <point x="1026" y="524" type="line" smooth="yes"/>
      <point x="1040" y="619"/>
      <point x="1137" y="703"/>
      <point x="1239" y="703" type="curve" smooth="yes"/>
      <point x="1326" y="703"/>
      <point x="1385" y="635"/>
      <point x="1372" y="540" type="curve" smooth="yes"/>
      <point x="1296" y="0" type="line"/>
      <point x="1596" y="0" type="line"/>
      <point x="1669" y="524" type="line" smooth="yes"/>
      <point x="1706" y="784"/>
      <point x="1517" y="1003"/>
      <point x="1248" y="1003" type="curve" smooth="yes"/>
      <point x="1136" y="1003"/>
      <point x="1020" y="965"/>
      <point x="914" y="877" type="curve"/>
      <point x="844" y="953"/>
      <point x="734" y="1003"/>
      <point x="606" y="1003" type="curve" smooth="yes"/>
      <point x="554" y="1003"/>
      <point x="497" y="997"/>
      <point x="437" y="956" type="curve"/>
      <point x="452" y="1000" type="line"/>
      <point x="150" y="1000" type="line"/>
    </contour>
  </outline>
</glyph>
<glyph name="r" format="2">
  <advance width="832"/>
  <unicode hex="0072"/>
  <outline>
    <contour>
      <point x="788" y="697" type="curve"/>
      <point x="867" y="1012" type="line"/>
      <point x="828" y="1024"/>
      <point x="784" y="1026"/>
      <point x="729" y="1026" type="curve" smooth="yes"/>
      <point x="630" y="1026"/>
      <point x="545" y="984"/>
      <point x="473" y="914" type="curve"/>
      <point x="491" y="998" type="line"/>
      <point x="190" y="998" type="line"/>
      <point x="50" y="0" type="line"/>
      <point x="352" y="0" type="line"/>
      <point x="421" y="492" type="line" smooth="yes"/>
      <point x="439" y="624"/>
      <point x="530" y="738"/>
      <point x="668" y="738" type="curve" smooth="yes"/>
      <point x="714" y="738"/>
      <point x="756" y="725"/>
    </contour>
  </outline>
</glyph>
<glyph name="s" format="2">
  <advance width="894"/>
  <unicode hex="0073"/>
  <outline>
    <contour>
      <point x="362" y="-16" type="curve" smooth="yes"/>
      <point x="563" y="-37"/>
      <point x="777" y="94"/>
      <point x="804" y="285" type="curve" smooth="yes"/>
      <point x="835" y="466"/>
      <point x="681" y="575"/>
      <point x="508" y="628" type="curve" smooth="yes"/>
      <point x="475" y="644"/>
      <point x="378" y="642"/>
      <point x="385" y="691" type="curve" smooth="yes"/>
      <point x="395" y="762"/>
      <point x="459" y="787"/>
      <point x="536" y="782" type="curve" smooth="yes"/>
      <point x="579" y="775"/>
      <point x="614" y="745"/>
      <point x="633" y="715" type="curve"/>
      <point x="879" y="841" type="line"/>
      <point x="808" y="961"/>
      <point x="677" y="1034"/>
      <point x="512" y="1034" type="curve" smooth="yes"/>
      <point x="323" y="1034"/>
      <point x="136" y="914"/>
      <point x="108" y="717" type="curve" smooth="yes"/>
      <point x="81" y="524"/>
      <point x="250" y="401"/>
      <point x="433" y="375" type="curve" smooth="yes"/>
      <point x="473" y="366"/>
      <point x="539" y="362"/>
      <point x="532" y="315" type="curve" smooth="yes"/>
      <point x="524" y="256"/>
      <point x="458" y="234"/>
      <point x="398" y="234" type="curve" smooth="yes"/>
      <point x="328" y="234"/>
      <point x="295" y="276"/>
      <point x="278" y="298" type="curve"/>
      <point x="21" y="203" type="line"/>
      <point x="68" y="73"/>
      <point x="204" y="-3"/>
    </contour>
  </outline>
</glyph>
<glyph name="z" format="2">
  <advance width="1094"/>
  <unicode hex="007A"/>
  <outline>
    <contour>
      <point x="1005" y="700" type="line"/>
      <point x="1044" y="1000" type="line"/>
      <point x="190" y="1000" type="line"/>
      <point x="148" y="700" type="line"/>
      <point x="565" y="700" type="line"/>
      <point x="89" y="300" type="line"/>
      <point x="50" y="0" type="line"/>
      <point x="904" y="0" type="line"/>
      <point x="946" y="300" type="line"/>
      <point x="529" y="300" type="line"/>
    </contour>
  </outline>
</glyph>
<glyph name="braceright" format="2">
  <advance width="830"/>
  <unicode hex="007D"/>
  <outline>
    <contour>
      <point x="14" y="-112" type="line"/>
      <point x="148" y="-112" type="line" smooth="yes"/>
      <point x="342" y="-112"/>
      <point x="511" y="36"/>
      <point x="538" y="230" type="curve" smooth="yes"/>
      <point x="572" y="474" type="line" smooth="yes"/>
      <point x="581" y="538"/>
      <point x="717" y="552"/>
      <point x="728" y="627" type="curve" smooth="yes"/>
      <point x="740" y="712"/>
      <point x="610" y="742"/>
      <point x="618" y="796" type="curve" smooth="yes"/>
      <point x="652" y="1042" type="line" smooth="yes"/>
      <point x="679" y="1234"/>
      <point x="538" y="1400"/>
      <point x="344" y="1400" type="curve" smooth="yes"/>
      <point x="226" y="1400" type="line"/>
      <point x="184" y="1100" type="line"/>
      <point x="319" y="1100" type="line" smooth="yes"/>
      <point x="347" y="1100"/>
      <point x="358" y="1086"/>
      <point x="354" y="1058" type="curve" smooth="yes"/>
      <point x="319" y="802" type="line"/>
      <point x="314" y="740"/>
      <point x="387" y="706"/>
      <point x="381" y="661" type="curve" smooth="yes"/>
      <point x="371" y="592"/>
      <point x="289" y="566"/>
      <point x="276" y="502" type="curve"/>
      <point x="240" y="246" type="line" smooth="yes"/>
      <point x="236" y="218"/>
      <point x="202" y="188"/>
      <point x="174" y="188" type="curve" smooth="yes"/>
      <point x="56" y="188" type="line"/>
    </contour>
  </outline>
</glyph>
<glyph name="sterling" format="2">
  <advance width="1214"/>
  <unicode hex="00A3"/>
  <outline>
    <contour>
      <point x="34" y="0" type="line"/>
      <point x="1038" y="0" type="line"/>
      <point x="1080" y="300" type="line"/>
      <point x="620" y="292" type="line"/>
      <point x="624" y="304"/>
      <point x="635" y="338"/>
      <point x="638" y="359" type="curve" smooth="yes"/>
      <point x="674" y="611"/>
      <point x="406" y="685"/>
      <point x="434" y="883" type="curve" smooth="yes"/>
      <point x="452" y="1016"/>
      <point x="578" y="1126"/>
      <point x="711" y="1126" type="curve" smooth="yes"/>
      <point x="828" y="1126"/>
      <point x="909" y="1032"/>
      <point x="891" y="908" type="curve"/>
      <point x="1189" y="892" type="line"/>
      <point x="1230" y="1182"/>
      <point x="1018" y="1426"/>
      <point x="719" y="1426" type="curve" smooth="yes"/>
      <point x="440" y="1426"/>
      <point x="178" y="1196"/>
      <point x="139" y="917" type="curve" smooth="yes"/>
      <point x="114" y="742"/>
      <point x="301" y="573"/>
      <point x="351" y="486" type="curve" smooth="yes"/>
      <point x="396" y="372"/>
      <point x="194" y="300"/>
      <point x="68" y="300" type="curve"/>
    </contour>
    <contour>
      <point x="96" y="444" type="line"/>
      <point x="876" y="444" type="line"/>
      <point x="904" y="644" type="line"/>
      <point x="124" y="644" type="line"/>
    </contour>
  </outline>
</glyph>
<glyph name="logicalnot" format="2">
  <advance width="1050"/>
  <unicode hex="00AC"/>
  <outline>
    <contour>
      <point x="638" y="275" type="line"/>
      <point x="938" y="275" type="line"/>
      <point x="1030" y="925" type="line"/>
      <point x="140" y="925" type="line"/>
      <point x="98" y="625" type="line"/>
      <point x="688" y="625" type="line"/>
    </contour>
  </outline>
</glyph>
<glyph name="macron" format="2">
  <advance width="1200"/>
  <unicode hex="00AF"/>
  <outline>
    <contour>
      <point x="394" y="1442" type="line"/>
      <point x="352" y="1142" type="line"/>
      <point x="1028" y="1142" type="line"/>
      <point x="1070" y="1442" type="line"/>
    </contour>
  </outline>
</glyph>
<glyph name="paragraph" format="2">
  <advance width="1166"/>
  <unicode hex="00B6"/>
  <outline>
    <contour>
      <point x="307" y="-302" type="line"/>
      <point x="607" y="-302" type="line"/>
      <point x="846" y="1400" type="line"/>
      <point x="538" y="1400" type="line" smooth="yes"/>
      <point x="350" y="1400"/>
      <point x="186" y="1256"/>
      <point x="161" y="1077" type="curve" smooth="yes"/>
      <point x="133" y="878"/>
      <point x="271" y="718"/>
      <point x="459" y="718" type="curve"/>
    </contour>
    <contour>
      <point x="673" y="-302" type="line"/>
      <point x="973" y="-302" type="line"/>
      <point x="1212" y="1400" type="line"/>
      <point x="912" y="1400" type="line"/>
    </contour>
  </outline>
</glyph>
<glyph name="periodcentered" format="2">
  <advance width="460"/>
  <unicode hex="00B7"/>
  <outline>
    <contour>
      <point x="240" y="450" type="curve" smooth="yes"/>
      <point x="313" y="450"/>
      <point x="381" y="508"/>
      <point x="392" y="583" type="curve" smooth="yes"/>
      <point x="404" y="674"/>
      <point x="339" y="750"/>
      <point x="248" y="750" type="curve" smooth="yes"/>
      <point x="173" y="750"/>
      <point x="107" y="690"/>
      <point x="96" y="617" type="curve" smooth="yes"/>
      <point x="83" y="524"/>
      <point x="147" y="450"/>
    </contour>
  </outline>
</glyph>
<glyph name="questiondown" format="2">
  <advance width="1164"/>
  <unicode hex="00BF"/>
  <outline>
    <contour>
      <point x="449" y="-426" type="curve" smooth="yes"/>
      <point x="706" y="-426"/>
      <point x="943" y="-218"/>
      <point x="980" y="46" type="curve"/>
      <point x="682" y="62" type="line"/>
      <point x="668" y="-38"/>
      <point x="566" y="-126"/>
      <point x="457" y="-126" type="curve" smooth="yes"/>
      <point x="366" y="-126"/>
      <point x="302" y="-54"/>
      <point x="315" y="37" type="curve" smooth="yes"/>
      <point x="326" y="118"/>
      <point x="377" y="184"/>
      <point x="444" y="210" type="curve" smooth="yes"/>
      <point x="590" y="291"/>
      <point x="688" y="431"/>
      <point x="711" y="592" type="curve"/>
      <point x="413" y="608" type="line"/>
      <point x="406" y="557"/>
      <point x="366" y="509"/>
      <point x="312" y="490" type="curve" smooth="yes"/>
      <point x="153" y="404"/>
      <point x="44" y="244"/>
      <point x="20" y="71" type="curve" smooth="yes"/>
      <point x="-19" y="-202"/>
      <point x="174" y="-426"/>
    </contour>
    <contour>
      <point x="581" y="726" type="curve" smooth="yes"/>
      <point x="656" y="726"/>
      <point x="722" y="784"/>
      <point x="732" y="857" type="curve" smooth="yes"/>
      <point x="745" y="952"/>
      <point x="682" y="1026"/>
      <point x="589" y="1026" type="curve" smooth="yes"/>
      <point x="516" y="1026"/>
      <point x="450" y="968"/>
      <point x="439" y="891" type="curve" smooth="yes"/>
      <point x="426" y="800"/>
      <point x="490" y="726"/>
    </contour>
  </outline>
</glyph>
<glyph name="Thorn" format="2">
  <advance width="1140"/>
  <unicode hex="00DE"/>
  <outline>
    <contour>
      <point x="50" y="0" type="line"/>
      <point x="350" y="0" type="line"/>
      <point x="388" y="272" type="line"/>
      <point x="624" y="272" type="line" smooth="yes"/>
      <point x="846" y="272"/>
      <point x="1054" y="456"/>
      <point x="1086" y="683" type="curve" smooth="yes"/>
      <point x="1120" y="924"/>
      <point x="958" y="1128"/>
      <point x="728" y="1128" type="curve" smooth="yes"/>
      <point x="508" y="1128" type="line"/>
      <point x="546" y="1400" type="line"/>
      <point x="246" y="1400" type="line"/>
    </contour>
    <contour>
      <point x="430" y="572" type="line"/>
      <point x="472" y="872" type="line"/>
      <point x="675" y="872" type="line" smooth="yes"/>
      <point x="755" y="872"/>
      <point x="804" y="812"/>
      <point x="794" y="739" type="curve" smooth="yes"/>
      <point x="781" y="648"/>
      <point x="696" y="572"/>
      <point x="616" y="572" type="curve" smooth="yes"/>
    </contour>
  </outline>
</glyph>
<glyph name="germandbls" format="2">
  <advance width="1186"/>
  <unicode hex="00DF"/>
  <outline>
    <contour>
      <point x="50" y="0" type="line"/>
      <point x="350" y="0" type="line"/>
      <point x="482" y="942" type="line" smooth="yes"/>
      <point x="497" y="1050"/>
      <point x="605" y="1144"/>
      <point x="721" y="1144" type="curve" smooth="yes"/>
      <point x="793" y="1144"/>
      <point x="842" y="1084"/>
      <point x="832" y="1011" type="curve" smooth="yes"/>
      <point x="819" y="920"/>
      <point x="736" y="859"/>
      <point x="654" y="845" type="curve" smooth="yes"/>
      <point x="637" y="840" type="line"/>
      <point x="604" y="598" type="line"/>
      <point x="694" y="594" type="line" smooth="yes"/>
      <point x="797" y="588"/>
      <point x="863" y="524"/>
      <point x="852" y="441" type="curve" smooth="yes"/>
      <point x="838" y="340"/>
      <point x="733" y="254"/>
      <point x="629" y="254" type="curve" smooth="yes"/>
      <point x="557" y="254" type="line"/>
      <point x="561" y="0" type="line"/>
      <point x="642" y="0" type="line" smooth="yes"/>
      <point x="874" y="0"/>
      <point x="1078" y="162"/>
      <point x="1110" y="385" type="curve" smooth="yes"/>
      <point x="1128" y="518"/>
      <point x="1129" y="709"/>
      <point x="962" y="730" type="curve"/>
      <point x="1081" y="779"/>
      <point x="1116" y="898"/>
      <point x="1127" y="977" type="curve" smooth="yes"/>
      <point x="1161" y="1220"/>
      <point x="998" y="1400"/>
      <point x="760" y="1400" type="curve" smooth="yes"/>
      <point x="474" y="1400"/>
      <point x="214" y="1170"/>
      <point x="173" y="878" type="curve" smooth="yes"/>
    </contour>
  </outline>
</glyph>
<glyph name="divide" format="2">
  <advance width="1160"/>
  <unicode hex="00F7"/>
  <outline>
    <contour>
      <point x="73" y="450" type="line"/>
      <point x="1073" y="450" type="line"/>
      <point x="1115" y="750" type="line"/>
      <point x="115" y="750" type="line"/>
    </contour>
    <contour>
      <point x="649" y="1110" type="curve"/>
      <point x="573" y="1110"/>
      <point x="507" y="1050"/>
      <point x="497" y="977" type="curve"/>
      <point x="484" y="886"/>
      <point x="548" y="810"/>
      <point x="640" y="810" type="curve"/>
      <point x="714" y="810"/>
      <point x="782" y="870"/>
      <point x="792" y="943" type="curve"/>
      <point x="805" y="1034"/>
      <point x="739" y="1110"/>
    </contour>
    <contour>
      <point x="548" y="390" type="curve"/>
      <point x="472" y="390"/>
      <point x="406" y="330"/>
      <point x="396" y="257" type="curve"/>
      <point x="383" y="166"/>
      <point x="447" y="90"/>
      <point x="539" y="90" type="curve"/>
      <point x="613" y="90"/>
      <point x="681" y="150"/>
      <point x="691" y="223" type="curve"/>
      <point x="704" y="314"/>
      <point x="638" y="390"/>
    </contour>
  </outline>
</glyph>
<glyph name="oslash" format="2">
  <advance width="1120"/>
  <unicode hex="00F8"/>
  <outline>
    <contour>
      <point x="283" y="-86" type="line"/>
      <point x="349" y="1" type="line"/>
      <point x="391" y="-15"/>
      <point x="440" y="-26"/>
      <point x="503" y="-26" type="curve" smooth="yes"/>
      <point x="770" y="-26"/>
      <point x="1018" y="202"/>
      <point x="1058" y="483" type="curve" smooth="yes"/>
      <point x="1079" y="638"/>
      <point x="1036" y="772"/>
      <point x="960" y="868" type="curve"/>
      <point x="1035" y="968" type="line"/>
      <point x="838" y="1088" type="line"/>
      <point x="769" y="1001" type="line"/>
      <point x="729" y="1017"/>
      <point x="678" y="1028"/>
      <point x="617" y="1028" type="curve" smooth="yes"/>
      <point x="350" y="1028"/>
      <point x="102" y="800"/>
      <point x="62" y="517" type="curve" smooth="yes"/>
      <point x="41" y="364"/>
      <point x="84" y="230"/>
      <point x="160" y="134" type="curve"/>
      <point x="85" y="34" type="line"/>
    </contour>
    <contour>
      <point x="331" y="372" type="line"/>
      <point x="326" y="404"/>
      <point x="327" y="436"/>
      <point x="331" y="465" type="curve" smooth="yes"/>
      <point x="353" y="624"/>
      <point x="487" y="762"/>
      <point x="622" y="766" type="curve"/>
    </contour>
    <contour>
      <point x="499" y="236" type="curve"/>
      <point x="789" y="630" type="line"/>
      <point x="792" y="598"/>
      <point x="793" y="564"/>
      <point x="789" y="535" type="curve" smooth="yes"/>
      <point x="767" y="376"/>
      <point x="637" y="240"/>
    </contour>
  </outline>
</glyph>
<glyph name="OE" format="2">
  <advance width="2096"/>
  <unicode hex="0152"/>
  <outline>
    <contour>
      <point x="713" y="-26" type="curve" smooth="yes"/>
      <point x="850" y="-26"/>
      <point x="991" y="17"/>
      <point x="1114" y="99" type="curve"/>
      <point x="1093" y="0" type="line"/>
      <point x="1926" y="0" type="line"/>
      <point x="1968" y="300" type="line"/>
      <point x="1436" y="300" type="line"/>
      <point x="1471" y="550" type="line"/>
      <point x="1907" y="550" type="line"/>
      <point x="1949" y="850" type="line"/>
      <point x="1513" y="850" type="line"/>
      <point x="1548" y="1100" type="line"/>
      <point x="2080" y="1100" type="line"/>
      <point x="2122" y="1400" type="line"/>
      <point x="1290" y="1400" type="line"/>
      <point x="1268" y="1291" type="line"/>
      <point x="1168" y="1373"/>
      <point x="1038" y="1426"/>
      <point x="883" y="1426" type="curve" smooth="yes"/>
      <point x="512" y="1426"/>
      <point x="166" y="1108"/>
      <point x="110" y="717" type="curve" smooth="yes"/>
      <point x="53" y="308"/>
      <point x="324" y="-26"/>
    </contour>
    <contour>
      <point x="721" y="274" type="curve" smooth="yes"/>
      <point x="516" y="274"/>
      <point x="374" y="458"/>
      <point x="406" y="683" type="curve" smooth="yes"/>
      <point x="440" y="926"/>
      <point x="652" y="1126"/>
      <point x="875" y="1126" type="curve" smooth="yes"/>
      <point x="1080" y="1126"/>
      <point x="1222" y="942"/>
      <point x="1190" y="717" type="curve" smooth="yes"/>
      <point x="1156" y="474"/>
      <point x="944" y="274"/>
    </contour>
  </outline>
</glyph>
<glyph name="ogonek" format="2">
  <advance width="1200"/>
  <unicode hex="02DB"/>
  <outline>
    <contour>
      <point x="523" y="-446" type="curve" smooth="yes"/>
      <point x="639" y="-446" type="line"/>
      <point x="670" y="-228" type="line"/>
      <point x="533" y="-228" type="line" smooth="yes"/>
      <point x="453" y="-228"/>
      <point x="388" y="-152"/>
      <point x="399" y="-74" type="curve" smooth="yes"/>
      <point x="418" y="62" type="line"/>
      <point x="200" y="62" type="line"/>
      <point x="184" y="-54" type="line" smooth="yes"/>
      <point x="154" y="-266"/>
      <point x="309" y="-446"/>
    </contour>
  </outline>
</glyph>
<glyph name="cedillacomb" format="2">
  <unicode hex="0327"/>
  <outline>
    <contour>
      <point x="287" y="-306" type="line"/>
      <point x="419" y="-306" type="line" smooth="yes"/>
      <point x="633" y="-306"/>
      <point x="820" y="-142"/>
      <point x="850" y="70" type="curve" smooth="yes"/>
      <point x="868" y="202" type="line"/>
      <point x="650" y="202" type="line"/>
      <point x="633" y="82" type="line" smooth="yes"/>
      <point x="622" y="4"/>
      <point x="517" y="-88"/>
      <point x="437" y="-88" type="curve" smooth="yes"/>
      <point x="317" y="-88" type="line"/>
    </contour>
  </outline>
</glyph>
<glyph name="Germandbls" format="2">
  <advance width="1246"/>
  <unicode hex="1E9E"/>
  <outline>
    <contour>
      <point x="50" y="0" type="line"/>
      <point x="350" y="0" type="line"/>
      <point x="482" y="942" type="line" smooth="yes"/>
      <point x="497" y="1050"/>
      <point x="607" y="1144"/>
      <point x="701" y="1144" type="curve" smooth="yes"/>
      <point x="779" y="1144"/>
      <point x="850" y="1156"/>
      <point x="841" y="1091" type="curve" smooth="yes"/>
      <point x="835" y="1048"/>
      <point x="641" y="866"/>
      <point x="620" y="712" type="curve" smooth="yes"/>
      <point x="603" y="594" type="line"/>
      <point x="694" y="594" type="line" smooth="yes"/>
      <point x="798" y="594"/>
      <point x="929" y="564"/>
      <point x="912" y="441" type="curve" smooth="yes"/>
      <point x="892" y="300"/>
      <point x="733" y="254"/>
      <point x="629" y="254" type="curve" smooth="yes"/>
      <point x="557" y="254" type="line"/>
      <point x="582" y="0" type="line"/>
      <point x="642" y="0" type="line" smooth="yes"/>
      <point x="874" y="0"/>
      <point x="1136" y="142"/>
      <point x="1173" y="405" type="curve" smooth="yes"/>
      <point x="1197" y="578"/>
      <point x="1040" y="772"/>
      <point x="862" y="729" type="curve"/>
      <point x="1036" y="900"/>
      <point x="1123" y="964"/>
      <point x="1135" y="1051" type="curve" smooth="yes"/>
      <point x="1162" y="1240"/>
      <point x="976" y="1400"/>
      <point x="760" y="1400" type="curve" smooth="yes"/>
      <point x="476" y="1400"/>
      <point x="214" y="1170"/>
      <point x="173" y="878" type="curve" smooth="yes"/>
    </contour>
  </outline>
</glyph>
<glyph name="daggerdbl" format="2">
  <advance width="896"/>
  <unicode hex="2021"/>
  <outline>
    <contour>
      <point x="108" y="702" type="line"/>
      <point x="326" y="702" type="line"/>
      <point x="306" y="560" type="line"/>
      <point x="606" y="560" type="line"/>
      <point x="626" y="702" type="line"/>
      <point x="844" y="702" type="line"/>
      <point x="886" y="1000" type="line"/>
      <point x="668" y="1000" type="line"/>
      <point x="682" y="1100" type="line"/>
      <point x="900" y="1100" type="line"/>
      <point x="942" y="1400" type="line"/>
      <point x="724" y="1400" type="line"/>
      <point x="739" y="1500" type="line"/>
      <point x="439" y="1500" type="line"/>
      <point x="424" y="1400" type="line"/>
      <point x="206" y="1400" type="line"/>
      <point x="164" y="1100" type="line"/>
      <point x="382" y="1100" type="line"/>
      <point x="368" y="1000" type="line"/>
      <point x="150" y="1000" type="line"/>
    </contour>
  </outline>
</glyph>
<glyph name="perthousand" format="2">
  <advance width="2350"/>
  <unicode hex="2030"/>
  <outline>
    <contour>
      <point x="165" y="0" type="line"/>
      <point x="517" y="0" type="line"/>
      <point x="1522" y="1400" type="line"/>
      <point x="1169" y="1400" type="line"/>
    </contour>
    <contour>
      <point x="467" y="760" type="curve"/>
      <point x="635" y="760"/>
      <point x="801" y="894"/>
      <point x="827" y="1075" type="curve"/>
      <point x="854" y="1268"/>
      <point x="717" y="1424"/>
      <point x="527" y="1424" type="curve"/>
      <point x="357" y="1424"/>
      <point x="191" y="1292"/>
      <point x="166" y="1109" type="curve"/>
      <point x="138" y="914"/>
      <point x="277" y="760"/>
    </contour>
    <contour>
      <point x="462" y="960" type="curve"/>
      <point x="396" y="960"/>
      <point x="352" y="1010"/>
      <point x="361" y="1075" type="curve"/>
      <point x="372" y="1158"/>
      <point x="450" y="1224"/>
      <point x="533" y="1224" type="curve"/>
      <point x="596" y="1224"/>
      <point x="641" y="1174"/>
      <point x="632" y="1109" type="curve"/>
      <point x="620" y="1026"/>
      <point x="542" y="960"/>
    </contour>
    <contour>
      <point x="1159" y="-26" type="curve"/>
      <point x="1334" y="-26"/>
      <point x="1496" y="116"/>
      <point x="1520" y="289" type="curve"/>
      <point x="1546" y="474"/>
      <point x="1419" y="640"/>
      <point x="1219" y="640" type="curve"/>
      <point x="1051" y="640"/>
      <point x="885" y="504"/>
      <point x="859" y="323" type="curve"/>
      <point x="833" y="140"/>
      <point x="964" y="-26"/>
    </contour>
    <contour>
      <point x="1153" y="174" type="curve"/>
      <point x="1090" y="174"/>
      <point x="1045" y="226"/>
      <point x="1054" y="289" type="curve"/>
      <point x="1066" y="372"/>
      <point x="1144" y="440"/>
      <point x="1224" y="440" type="curve"/>
      <point x="1290" y="440"/>
      <point x="1334" y="388"/>
      <point x="1325" y="323" type="curve"/>
      <point x="1314" y="242"/>
      <point x="1236" y="174"/>
    </contour>
    <contour>
      <point x="1879" y="-26" type="curve"/>
      <point x="2054" y="-26"/>
      <point x="2216" y="116"/>
      <point x="2240" y="289" type="curve"/>
      <point x="2266" y="474"/>
      <point x="2139" y="640"/>
      <point x="1939" y="640" type="curve"/>
      <point x="1771" y="640"/>
      <point x="1605" y="504"/>
      <point x="1579" y="323" type="curve"/>
      <point x="1553" y="140"/>
      <point x="1684" y="-26"/>
    </contour>
    <contour>
      <point x="1873" y="174" type="curve"/>
      <point x="1810" y="174"/>
      <point x="1765" y="226"/>
      <point x="1774" y="289" type="curve"/>
      <point x="1786" y="372"/>
      <point x="1864" y="440"/>
      <point x="1944" y="440" type="curve"/>
      <point x="2010" y="440"/>
      <point x="2054" y="388"/>
      <point x="2045" y="323" type="curve"/>
      <point x="2034" y="242"/>
      <point x="1956" y="174"/>
    </contour>
  </outline>
</glyph>
<glyph name="primeReversed" format="2">
  <advance width="602"/>
  <unicode hex="2035"/>
  <outline>
    <contour>
      <point x="337" y="878" type="line"/>
      <point x="534" y="878" type="line"/>
      <point x="546" y="1400" type="line"/>
      <point x="249" y="1400" type="line"/>
    </contour>
  </outline>
</glyph>
<glyph name="guilsinglleft" format="2">
  <advance width="820"/>
  <unicode hex="2039"/>
  <outline>
    <contour>
      <point x="390" y="261" type="line"/>
      <point x="683" y="261" type="line"/>
      <point x="436" y="601" type="line"/>
      <point x="785" y="939" type="line"/>
      <point x="479" y="939" type="line"/>
      <point x="134" y="601" type="line"/>
    </contour>
  </outline>
</glyph>
<glyph name="zerosuperior" format="2">
  <advance width="648"/>
  <unicode hex="2070"/>
  <outline>
    <contour>
      <point x="383" y="798" type="curve"/>
      <point x="513" y="798"/>
      <point x="637" y="934"/>
      <point x="663" y="1117" type="curve"/>
      <point x="691" y="1316"/>
      <point x="591" y="1468"/>
      <point x="443" y="1468" type="curve"/>
      <point x="313" y="1468"/>
      <point x="189" y="1332"/>
      <point x="163" y="1151" type="curve"/>
      <point x="135" y="950"/>
      <point x="235" y="798"/>
    </contour>
    <contour>
      <point x="371" y="954" type="curve"/>
      <point x="324" y="954"/>
      <point x="317" y="1047"/>
      <point x="327" y="1117" type="curve"/>
      <point x="338" y="1196"/>
      <point x="386" y="1312"/>
      <point x="455" y="1312" type="curve"/>
      <point x="499" y="1312"/>
      <point x="509" y="1217"/>
      <point x="499" y="1151" type="curve"/>
      <point x="489" y="1078"/>
      <point x="434" y="954"/>
    </contour>
  </outline>
</glyph>
<glyph name="eightsuperior" format="2">
  <advance width="636"/>
  <unicode hex="2078"/>
  <outline>
    <contour>
      <point x="376" y="798" type="curve" smooth="yes"/>
      <point x="492" y="798"/>
      <point x="593" y="874"/>
      <point x="609" y="988" type="curve" smooth="yes"/>
      <point x="618" y="1052"/>
      <point x="601" y="1103"/>
      <point x="579" y="1136" type="curve"/>
      <point x="614" y="1175"/>
      <point x="629" y="1218"/>
      <point x="634" y="1252" type="curve" smooth="yes"/>
      <point x="651" y="1378"/>
      <point x="560" y="1470"/>
      <point x="437" y="1470" type="curve" smooth="yes"/>
      <point x="330" y="1470"/>
      <point x="234" y="1394"/>
      <point x="218" y="1286" type="curve" smooth="yes"/>
      <point x="211" y="1234"/>
      <point x="224" y="1189"/>
      <point x="239" y="1162" type="curve"/>
      <point x="196" y="1117"/>
      <point x="176" y="1068"/>
      <point x="169" y="1022" type="curve" smooth="yes"/>
      <point x="151" y="890"/>
      <point x="244" y="798"/>
    </contour>
    <contour>
      <point x="364" y="952" type="curve" smooth="yes"/>
      <point x="343" y="952"/>
      <point x="330" y="968"/>
      <point x="333" y="988" type="curve" smooth="yes"/>
      <point x="338" y="1028"/>
      <point x="375" y="1060"/>
      <point x="412" y="1060" type="curve" smooth="yes"/>
      <point x="435" y="1060"/>
      <point x="449" y="1044"/>
      <point x="445" y="1022" type="curve" smooth="yes"/>
      <point x="440" y="984"/>
      <point x="403" y="952"/>
    </contour>
    <contour>
      <point x="403" y="1228" type="curve" smooth="yes"/>
      <point x="389" y="1228"/>
      <point x="380" y="1239"/>
      <point x="382" y="1252" type="curve" smooth="yes"/>
      <point x="386" y="1285"/>
      <point x="417" y="1312"/>
      <point x="448" y="1312" type="curve" smooth="yes"/>
      <point x="463" y="1312"/>
      <point x="473" y="1301"/>
      <point x="470" y="1286" type="curve" smooth="yes"/>
      <point x="466" y="1255"/>
      <point x="435" y="1228"/>
    </contour>
  </outline>
</glyph>
<glyph name="oneinferior" format="2">
  <advance width="466"/>
  <unicode hex="2081"/>
  <outline>
    <contour>
      <point x="84" y="0" type="line"/>
      <point x="252" y="0" type="line"/>
      <point x="340" y="631" type="line"/>
      <point x="137" y="631" type="line"/>
      <point x="90" y="463" type="line"/>
      <point x="149" y="463" type="line"/>
    </contour>
  </outline>
</glyph>
<glyph name="twoinferior" format="2">
  <advance width="727"/>
  <unicode hex="2082"/>
  <outline>
    <contour>
      <point x="26" y="0" type="line"/>
      <point x="501" y="0" type="line"/>
      <point x="524" y="168" type="line"/>
      <point x="362" y="162" type="line"/>
      <point x="460" y="239"/>
      <point x="556" y="306"/>
      <point x="569" y="401" type="curve"/>
      <point x="589" y="544"/>
      <point x="489" y="662"/>
      <point x="347" y="662" type="curve"/>
      <point x="220" y="662"/>
      <point x="104" y="560"/>
      <point x="86" y="426" type="curve"/>
      <point x="251" y="410" type="line"/>
      <point x="257" y="453"/>
      <point x="306" y="494"/>
      <point x="357" y="494" type="curve"/>
      <point x="390" y="494"/>
      <point x="411" y="469"/>
      <point x="402" y="434" type="curve"/>
      <point x="310" y="289"/>
      <point x="166" y="231"/>
      <point x="40" y="151" type="curve"/>
    </contour>
  </outline>
</glyph>
<glyph name="threeinferior" format="2">
  <advance width="588"/>
  <unicode hex="2083"/>
  <outline>
    <contour>
      <point x="237" y="-31" type="curve" smooth="yes"/>
      <point x="349" y="-31"/>
      <point x="454" y="62"/>
      <point x="470" y="175" type="curve" smooth="yes"/>
      <point x="479" y="234"/>
      <point x="464" y="289"/>
      <point x="437" y="321" type="curve"/>
      <point x="473" y="363"/>
      <point x="485" y="402"/>
      <point x="490" y="437" type="curve" smooth="yes"/>
      <point x="508" y="561"/>
      <point x="420" y="662"/>
      <point x="296" y="662" type="curve" smooth="yes"/>
      <point x="189" y="662"/>
      <point x="93" y="577"/>
      <point x="77" y="462" type="curve"/>
      <point x="242" y="446" type="line"/>
      <point x="245" y="467"/>
      <point x="277" y="494"/>
      <point x="306" y="494" type="curve" smooth="yes"/>
      <point x="320" y="494"/>
      <point x="329" y="483"/>
      <point x="327" y="471" type="curve" smooth="yes"/>
      <point x="322" y="433"/>
      <point x="289" y="382"/>
      <point x="213" y="382" type="curve"/>
      <point x="216" y="276" type="line"/>
      <point x="289" y="276"/>
      <point x="311" y="238"/>
      <point x="307" y="209" type="curve" smooth="yes"/>
      <point x="302" y="169"/>
      <point x="265" y="137"/>
      <point x="227" y="137" type="curve" smooth="yes"/>
      <point x="205" y="137"/>
      <point x="191" y="153"/>
      <point x="196" y="184" type="curve"/>
      <point x="30" y="200" type="line"/>
      <point x="13" y="78"/>
      <point x="107" y="-31"/>
    </contour>
  </outline>
</glyph>
<glyph name="fiveinferior" format="2">
  <advance width="706"/>
  <unicode hex="2085"/>
  <outline>
    <contour>
      <point x="264" y="-31" type="curve"/>
      <point x="388" y="-31"/>
      <point x="501" y="66"/>
      <point x="518" y="189" type="curve"/>
      <point x="538" y="333"/>
      <point x="466" y="444"/>
      <point x="310" y="444" type="curve"/>
      <point x="294" y="444" type="line"/>
      <point x="300" y="485" type="line"/>
      <point x="488" y="485" type="line"/>
      <point x="508" y="631" type="line"/>
      <point x="167" y="631" type="line"/>
      <point x="81" y="276" type="line"/>
      <point x="299" y="276" type="line"/>
      <point x="339" y="276"/>
      <point x="359" y="253"/>
      <point x="355" y="223" type="curve"/>
      <point x="349" y="176"/>
      <point x="303" y="137"/>
      <point x="254" y="137" type="curve"/>
      <point x="224" y="137"/>
      <point x="204" y="160"/>
      <point x="210" y="198" type="curve"/>
      <point x="44" y="214" type="line"/>
      <point x="25" y="82"/>
      <point x="126" y="-31"/>
    </contour>
  </outline>
</glyph>
<glyph name="leftArrow" format="2">
  <advance width="1426"/>
  <unicode hex="2190"/>
  <outline>
    <contour>
      <point x="596" y="198" type="line"/>
      <point x="831" y="410" type="line"/>
      <point x="665" y="600" type="line"/>
      <point x="1360" y="600" type="line"/>
      <point x="1402" y="900" type="line"/>
      <point x="713" y="900" type="line"/>
      <point x="927" y="1090" type="line"/>
      <point x="739" y="1302" type="line"/>
      <point x="115" y="750" type="line"/>
    </contour>
  </outline>
</glyph>
<glyph name="upDownArrow" format="2">
  <advance width="1264"/>
  <unicode hex="2195"/>
  <outline>
    <contour>
      <point x="549" y="-134" type="line"/>
      <point x="1172" y="418" type="line"/>
      <point x="984" y="630" type="line"/>
      <point x="771" y="442" type="line"/>
      <point x="863" y="1058" type="line"/>
      <point x="1030" y="870" type="line"/>
      <point x="1266" y="1082" type="line"/>
      <point x="785" y="1634" type="line"/>
      <point x="162" y="1082" type="line"/>
      <point x="350" y="870" type="line"/>
      <point x="563" y="1058" type="line"/>
      <point x="471" y="442" type="line"/>
      <point x="304" y="630" type="line"/>
      <point x="68" y="418" type="line"/>
    </contour>
  </outline>
</glyph>
<glyph name="infinity" format="2">
  <advance width="1548"/>
  <unicode hex="221E"/>
  <outline>
    <contour>
      <point x="445" y="230" type="curve" smooth="yes"/>
      <point x="555" y="219"/>
      <point x="659" y="272"/>
      <point x="768" y="382" type="curve"/>
      <point x="836" y="290"/>
      <point x="928" y="228"/>
      <point x="1063" y="228" type="curve" smooth="yes"/>
      <point x="1284" y="228"/>
      <point x="1452" y="386"/>
      <point x="1482" y="597" type="curve" smooth="yes"/>
      <point x="1512" y="812"/>
      <point x="1390" y="1000"/>
      <point x="1138" y="1000" type="curve" smooth="yes"/>
      <point x="1026" y="1000"/>
      <point x="922" y="954"/>
      <point x="811" y="844" type="curve"/>
      <point x="746" y="938"/>
      <point x="652" y="1000"/>
      <point x="520" y="1000" type="curve" smooth="yes"/>
      <point x="298" y="1000"/>
      <point x="128" y="840"/>
      <point x="98" y="631" type="curve" smooth="yes"/>
      <point x="68" y="416"/>
      <point x="197" y="249"/>
    </contour>
    <contour>
      <point x="445" y="500" type="curve" smooth="yes"/>
      <point x="386" y="500"/>
      <point x="356" y="542"/>
      <point x="364" y="597" type="curve" smooth="yes"/>
      <point x="372" y="658"/>
      <point x="428" y="724"/>
      <point x="510" y="725" type="curve" smooth="yes"/>
      <point x="559" y="729"/>
      <point x="613" y="657"/>
      <point x="628" y="628" type="curve"/>
      <point x="598" y="589"/>
      <point x="512" y="500"/>
    </contour>
    <contour>
      <point x="1071" y="501" type="curve" smooth="yes"/>
      <point x="1023" y="498"/>
      <point x="969" y="571"/>
      <point x="954" y="600" type="curve"/>
      <point x="1001" y="655"/>
      <point x="1072" y="728"/>
      <point x="1149" y="728" type="curve" smooth="yes"/>
      <point x="1198" y="728"/>
      <point x="1225" y="680"/>
      <point x="1218" y="631" type="curve" smooth="yes"/>
      <point x="1209" y="566"/>
      <point x="1154" y="502"/>
    </contour>
  </outline>
</glyph>
<glyph name="integral" format="2">
  <advance width="1179"/>
  <unicode hex="222B"/>
  <outline>
    <contour>
      <point x="345" y="-26" type="curve" smooth="yes"/>
      <point x="460" y="-26"/>
      <point x="584" y="30"/>
      <point x="647" y="194" type="curve"/>
      <point x="867" y="1108" type="line"/>
      <point x="879" y="1152"/>
      <point x="916" y="1181"/>
      <point x="954" y="1183" type="curve"/>
      <point x="989" y="1192"/>
      <point x="1019" y="1184"/>
      <point x="1020" y="1116" type="curve"/>
      <point x="1181" y="1084" type="line"/>
      <point x="1221" y="1256"/>
      <point x="1094" y="1426"/>
      <point x="905" y="1426" type="curve" smooth="yes"/>
      <point x="776" y="1426"/>
      <point x="624" y="1332"/>
      <point x="588" y="1204" type="curve"/>
      <point x="364" y="284" type="line"/>
      <point x="353" y="242"/>
      <point x="309" y="210"/>
      <point x="256" y="210" type="curve" smooth="yes"/>
      <point x="221" y="210"/>
      <point x="234" y="238"/>
      <point x="232" y="284" type="curve"/>
      <point x="53" y="314" type="line"/>
      <point x="16" y="120"/>
      <point x="146" y="-26"/>
    </contour>
  </outline>
</glyph>
<glyph name="greaterequal" format="2">
  <advance width="1160"/>
  <unicode hex="2265"/>
  <outline>
    <contour>
      <point x="60" y="352" type="line"/>
      <point x="1098" y="624" type="line"/>
      <point x="1167" y="1126" type="line"/>
      <point x="206" y="1400" type="line"/>
      <point x="163" y="1088" type="line"/>
      <point x="919" y="876" type="line"/>
      <point x="103" y="664" type="line"/>
    </contour>
    <contour>
      <point x="10" y="0" type="line"/>
      <point x="1010" y="0" type="line"/>
      <point x="1052" y="300" type="line"/>
      <point x="52" y="300" type="line"/>
    </contour>
  </outline>
</glyph>
<glyph name="lozenge" format="2">
  <advance width="1200"/>
  <unicode hex="25CA"/>
  <outline>
    <contour>
      <point x="260" y="0" type="line"/>
      <point x="804" y="0" type="line"/>
      <point x="1168" y="702" type="line"/>
      <point x="998" y="1400" type="line"/>
      <point x="450" y="1400" type="line"/>
      <point x="88" y="702" type="line"/>
    </contour>
    <contour>
      <point x="543" y="134" type="line"/>
      <point x="404" y="702" type="line"/>
      <point x="714" y="1270" type="line"/>
      <point x="854" y="702" type="line"/>
    </contour>
  </outline>
</glyph>
